<svg width="39" height="39" viewBox="0 0 39 39" fill="none" xmlns="http://www.w3.org/2000/svg">
<g clip-path="url(#clip0_700_4223)">
<path d="M18.2655 23.8854C18.2655 24.1378 18.0608 24.3425 17.8085 24.3425H12.6882C12.5553 24.3425 12.429 24.2846 12.3422 24.1841C12.2554 24.0835 12.2166 23.9502 12.236 23.8187C12.4822 22.15 13.7748 21.1909 15.0247 20.2633C16.08 19.4802 17.0767 18.7406 17.2832 17.6572C17.464 16.7094 17.0758 15.9716 16.2449 15.6835C15.3255 15.3647 14.0529 15.6997 13.4 16.9567C13.2836 17.1806 13.0079 17.268 12.7838 17.1515C12.5598 17.0352 12.4725 16.7593 12.5889 16.5353C13.481 14.8181 15.254 14.3725 16.5445 14.8199C17.804 15.2566 18.4464 16.4375 18.1812 17.8284C17.9079 19.262 16.7191 20.1442 15.5695 20.9974C14.5821 21.7301 13.6416 22.428 13.2737 23.4284H17.8085C18.0609 23.4284 18.2655 23.6331 18.2655 23.8854ZM26.3119 21.1345H25.158V23.8913C25.158 24.1437 24.9534 24.3483 24.701 24.3483C24.4487 24.3483 24.244 24.1437 24.244 23.8913V21.1345H19.3311C19.1478 21.1345 18.9822 21.0249 18.9105 20.8562C18.8388 20.6874 18.8749 20.4922 19.0021 20.3602L24.372 14.7914C24.5014 14.6573 24.6993 14.6152 24.872 14.6849C25.0449 14.7546 25.158 14.9223 25.158 15.1087V20.2204H26.3118C26.5642 20.2204 26.7689 20.4251 26.7689 20.6775C26.7689 20.9298 26.5642 21.1345 26.3118 21.1345H26.3119ZM24.244 16.241L20.4068 20.2204H24.244V16.241ZM38.6954 30.8623C38.6954 35.1814 35.1816 38.6953 30.8624 38.6953C28.1942 38.6953 25.8337 37.3539 24.4187 35.3104L22.7186 38.2552C22.649 38.3755 22.5285 38.4577 22.3911 38.4786C21.44 38.6225 20.4674 38.6954 19.5 38.6954C18.5326 38.6954 17.5609 38.6225 16.609 38.4786C16.4715 38.4579 16.351 38.3755 16.2814 38.2552L14.3605 34.9281C13.6326 34.6855 12.9164 34.3884 12.2268 34.0429L8.51662 35.0371C8.38226 35.0731 8.23905 35.0461 8.12723 34.9636C6.56464 33.8126 5.18829 32.4362 4.03635 30.8727C3.95393 30.7609 3.92689 30.6176 3.96284 30.4834L4.95688 26.7742C4.61167 26.0853 4.31437 25.3686 4.07139 24.6392L0.744885 22.7186C0.624457 22.6491 0.542268 22.5286 0.521473 22.3912C0.37766 21.4399 0.304688 20.4671 0.304688 19.5001C0.304688 18.5331 0.37766 17.5607 0.521473 16.609C0.542268 16.4715 0.624457 16.351 0.744885 16.2815L4.07162 14.3608C4.31476 13.631 4.6119 12.9144 4.95688 12.2259L3.96292 8.51669C3.92696 8.38247 3.95401 8.23919 4.03642 8.1273C5.18753 6.56471 6.56388 5.18836 8.12723 4.03641C8.23905 3.95399 8.38233 3.92695 8.51662 3.9629L12.226 4.95695C12.9147 4.61196 13.6312 4.31489 14.3605 4.07191L16.2814 0.744795C16.351 0.624367 16.4715 0.542178 16.6089 0.521383C18.5111 0.233834 20.4872 0.233682 22.391 0.521383C22.5285 0.542178 22.649 0.624367 22.7186 0.744795L24.6395 4.07191C25.3672 4.31436 26.0835 4.61151 26.7732 4.9571L30.4834 3.9629C30.6177 3.92695 30.7609 3.95407 30.8728 4.03641C32.4354 5.1876 33.8118 6.56402 34.9637 8.12722C35.0461 8.23912 35.0731 8.3824 35.0372 8.51661L34.0431 12.2258C34.3883 12.9148 34.6856 13.6315 34.9286 14.3608L38.2552 16.2814C38.3756 16.351 38.4578 16.4715 38.4786 16.6089C38.6224 17.5603 38.6953 18.533 38.6953 19.5C38.6953 20.467 38.6223 21.4392 38.4786 22.391C38.4579 22.5285 38.3756 22.649 38.2552 22.7185L35.3105 24.4186C37.3539 25.8336 38.6953 28.1941 38.6953 30.8623H38.6954ZM23.8816 34.4128C23.3369 33.3464 23.0295 32.1396 23.0295 30.8623C23.0295 30.4292 23.0654 30.0045 23.1333 29.5902C21.9725 30.0093 20.7542 30.2215 19.5001 30.2215C13.5882 30.2215 8.77858 25.4118 8.77858 19.4999C8.77858 13.5881 13.5881 8.77841 19.5001 8.77841C25.412 8.77841 30.2216 13.5881 30.2216 19.5C30.2216 20.7542 30.0094 21.9724 29.5904 23.1332C30.0046 23.0652 30.4294 23.0293 30.8625 23.0293C32.1398 23.0293 33.3466 23.3368 34.413 23.8814L37.6063 22.0377C37.7225 21.2004 37.7813 20.3477 37.7813 19.5C37.7813 18.6523 37.7225 17.7992 37.6063 16.9622L34.3202 15.065C34.2218 15.0082 34.1482 14.917 34.1135 14.8089C33.858 14.0129 33.5339 13.2313 33.1501 12.486C33.0981 12.385 33.0855 12.2682 33.115 12.1585L34.097 8.49406C33.0708 7.13531 31.8643 5.9289 30.5061 4.90317L26.8407 5.88541C26.731 5.91473 26.6142 5.90239 26.5132 5.85029C25.7667 5.46593 24.9855 5.14189 24.1916 4.88717C24.0835 4.85244 23.9922 4.77886 23.9354 4.68052L22.0378 1.39393C20.3628 1.16153 18.6359 1.16161 16.9623 1.39393L15.0647 4.68052C15.008 4.77886 14.9167 4.85252 14.8086 4.88717C14.0125 5.14258 13.2311 5.46654 12.4862 5.85014C12.3851 5.90216 12.2684 5.91466 12.1587 5.88525L8.49408 4.90325C7.13525 5.92951 5.92884 7.136 4.90326 8.49406L5.88519 12.1585C5.91459 12.2683 5.9021 12.3851 5.85008 12.4861C5.46655 13.2307 5.14244 14.0123 4.88688 14.8089C4.85222 14.917 4.77857 15.0083 4.68023 15.065L1.39395 16.9624C1.27778 17.7998 1.2189 18.6523 1.2189 19.5001C1.2189 20.3479 1.27771 21.2009 1.39395 22.0379L4.68 23.9351C4.77834 23.9918 4.852 24.0832 4.88665 24.1913C5.14213 24.9873 5.46625 25.7688 5.85008 26.5141C5.9021 26.6151 5.91467 26.7319 5.88519 26.8417L4.90318 30.5061C5.92945 31.8649 7.13593 33.0714 8.494 34.097L12.1595 33.1147C12.2691 33.0854 12.3859 33.0979 12.4869 33.1498C13.2333 33.5341 14.0144 33.8582 14.8086 34.113C14.9167 34.1477 15.008 34.2213 15.0647 34.3197L16.9623 37.6062C18.6382 37.8389 20.3652 37.8386 22.0379 37.6062L23.8816 34.4128ZM28.5044 23.3923C29.037 22.1627 29.3076 20.8544 29.3076 19.5C29.3076 14.0921 24.908 9.69248 19.5001 9.69248C14.0922 9.69248 9.69264 14.0921 9.69264 19.5C9.69264 24.9079 14.0923 29.3075 19.5001 29.3075C20.8546 29.3075 22.1629 29.0369 23.3925 28.5043C24.1599 26.0784 26.0786 24.1598 28.5044 23.3923ZM37.7813 30.8623C37.7813 27.0472 34.6776 23.9434 30.8624 23.9434C27.0473 23.9434 23.9435 27.0472 23.9435 30.8623C23.9435 34.6775 27.0473 37.7812 30.8624 37.7812C34.6775 37.7812 37.7813 34.6775 37.7813 30.8623ZM33.2529 26.991H28.4719C28.2195 26.991 28.0149 27.1956 28.0149 27.448C28.0149 27.7003 28.2195 27.905 28.4719 27.905H32.5121L29.0625 34.7759C28.9492 35.0016 29.0403 35.2762 29.2658 35.3895C29.3317 35.4226 29.4016 35.4382 29.4705 35.4382C29.6379 35.4382 29.7991 35.3459 29.8793 35.1861L33.6613 27.653C33.7324 27.5114 33.725 27.3429 33.6418 27.208C33.5585 27.073 33.4113 26.9909 33.2528 26.9909L33.2529 26.991Z" fill="#00D48F"/>
</g>
<defs>
<clipPath id="clip0_700_4223">
<rect width="39" height="39" fill="white"/>
</clipPath>
</defs>
</svg>
