<svg width="45" height="45" viewBox="0 0 45 45" fill="none" xmlns="http://www.w3.org/2000/svg">
<mask id="mask0_687_2521" style="mask-type:luminance" maskUnits="userSpaceOnUse" x="0" y="0" width="45" height="45">
<path d="M0 3.8147e-06H45V45H0V3.8147e-06Z" fill="white"/>
</mask>
<g mask="url(#mask0_687_2521)">
<path d="M30.4966 7.91016C29.7685 7.91016 29.1782 7.31988 29.1782 6.5918C29.1782 5.86371 29.7685 5.27344 30.4966 5.27344C31.2247 5.27344 31.8149 5.86371 31.8149 6.5918C31.8149 7.31988 31.2247 7.91016 30.4966 7.91016Z" fill="#00D48F"/>
<path d="M35.77 7.91016C35.0419 7.91016 34.4517 7.31988 34.4517 6.5918C34.4517 5.86371 35.0419 5.27344 35.77 5.27344C36.4981 5.27344 37.0884 5.86371 37.0884 6.5918C37.0884 7.31988 36.4981 7.91016 35.77 7.91016Z" fill="#00D48F"/>
<path d="M33.1333 13.1836C32.4052 13.1836 31.8149 12.5933 31.8149 11.8652C31.8149 11.1371 32.4052 10.5469 33.1333 10.5469C33.8614 10.5469 34.4517 11.1371 34.4517 11.8652C34.4517 12.5933 33.8614 13.1836 33.1333 13.1836Z" fill="#00D48F"/>
<path d="M25.1353 18.6328H26.4536V28.2778L24.3259 30.9375H24.9595C28.6374 30.9375 30.5047 31.4044 32.3105 31.8558C34.0374 32.2875 35.6687 32.6953 39.022 32.6953H39.6556L36.1216 28.2778V18.6328H37.4399C38.168 18.6328 38.7583 18.0425 38.7583 17.3145C38.7583 16.5864 38.168 15.9961 37.4399 15.9961H25.1353C24.4072 15.9961 23.8169 16.5864 23.8169 17.3145C23.8169 18.0425 24.4072 18.6328 25.1353 18.6328Z" fill="#00D48F"/>
<path d="M41.765 35.332H39.022C35.344 35.332 33.4767 34.8652 31.6709 34.4138C29.944 33.982 28.3128 33.5742 24.9595 33.5742H22.2165L20.7093 35.4582C19.8794 36.4955 19.4224 37.7984 19.4224 39.127C19.4224 42.3653 22.057 45 25.2953 45H37.2798C40.5181 45 43.1528 42.3653 43.1528 39.127C43.1528 37.7984 42.6958 36.4955 41.8658 35.4582L41.765 35.332Z" fill="#00D48F"/>
<path d="M3.77474 15.923L4.76096 14.9367C4.79058 14.9387 4.82011 14.9413 4.85017 14.9413H23.401L13.0969 25.2452C11.8119 26.5304 10.1239 27.1729 8.43584 27.1729C6.74782 27.1729 5.05979 26.5304 3.77474 25.2452C1.20464 22.6751 1.20464 18.4931 3.77474 15.923Z" fill="#00D48F"/>
<path d="M27.7016 13.8235C27.3642 13.8235 27.0268 13.6947 26.7694 13.4373L25.6369 12.3048H7.39307L16.515 3.18292L15.5827 2.25066C15.0679 1.73589 15.0679 0.901103 15.5827 0.38624C16.0976 -0.128535 16.9324 -0.128535 17.4471 0.38624L28.6338 11.573C29.1487 12.0877 29.1487 12.9225 28.6338 13.4373C28.3764 13.6947 28.039 13.8235 27.7016 13.8235Z" fill="#00D48F"/>
</g>
</svg>
