<svg width="49" height="47" viewBox="0 0 49 47" fill="none" xmlns="http://www.w3.org/2000/svg">
<rect x="0.5" y="0.501465" width="48" height="45.9863" rx="4.5" fill="#375079" stroke="#E3E3E3"/>
<g clip-path="url(#clip0_687_2378)">
<path d="M35.6284 14.7671H15.2954C13.8524 14.7671 12.6717 15.9756 12.6717 17.4526V18.4597C12.6717 18.8289 12.9669 19.131 13.3276 19.131C13.6884 19.131 13.9836 18.8289 13.9836 18.4597V17.4526C13.9836 17.3183 14.0163 17.184 14.0491 17.0498L21.3953 23.495L14.0491 29.9402C14.0163 29.8059 13.9836 29.6716 13.9836 29.5374V28.5303C13.9836 28.1611 13.6884 27.8589 13.3276 27.8589C12.9669 27.8589 12.6717 28.1611 12.6717 28.5303V29.5374C12.6717 31.0144 13.8524 32.2229 15.2954 32.2229H35.6284C37.0713 32.2229 38.252 31.0144 38.252 29.5374V17.4526C38.252 15.9756 37.0713 14.7671 35.6284 14.7671ZM15.033 16.1434C15.0986 16.1098 15.197 16.1098 15.2954 16.1098H35.6284C35.7267 16.1098 35.8251 16.1098 35.8907 16.1434L25.8882 24.9049C25.6258 25.1063 25.2979 25.1063 25.0355 24.9049L15.033 16.1434ZM35.6284 30.8801H15.2954C15.197 30.8801 15.0986 30.8801 15.033 30.8466L22.4119 24.3678L24.1828 25.9455C24.5436 26.2812 25.0027 26.449 25.4619 26.449C25.921 26.449 26.3801 26.2812 26.7409 25.9455L28.5118 24.3678L35.8907 30.8466C35.8251 30.8801 35.7267 30.8801 35.6284 30.8801ZM36.9402 29.5374C36.9402 29.6716 36.9074 29.8059 36.8746 29.9402L29.5285 23.495L36.8746 17.0498C36.9074 17.184 36.9402 17.3183 36.9402 17.4526V29.5374ZM10.704 21.8165C10.704 21.4473 10.9992 21.1452 11.3599 21.1452H15.2954C15.6561 21.1452 15.9513 21.4473 15.9513 21.8165C15.9513 22.1858 15.6561 22.4879 15.2954 22.4879H11.3599C10.9992 22.4879 10.704 22.1858 10.704 21.8165ZM15.2954 25.8448H9.39223C9.03148 25.8448 8.73633 25.5427 8.73633 25.1734C8.73633 24.8042 9.03148 24.502 9.39223 24.502H15.2954C15.6561 24.502 15.9513 24.8042 15.9513 25.1734C15.9513 25.5427 15.6561 25.8448 15.2954 25.8448Z" fill="white"/>
</g>
<defs>
<clipPath id="clip0_687_2378">
<rect width="29.5342" height="17.4521" fill="white" transform="translate(8.72656 14.769)"/>
</clipPath>
</defs>
</svg>
