<svg width="43" height="43" viewBox="0 0 43 43" fill="none" xmlns="http://www.w3.org/2000/svg">
<path d="M21.4949 1.26416C10.8953 1.26416 2.36133 9.87182 2.36133 20.3996C2.36133 30.7325 10.8012 39.5382 21.4931 39.5382H21.4999C24.0704 39.5382 26.642 39.0123 29.0487 37.9844L31.8216 40.7572C33.1251 42.0613 35.237 42.0619 36.5411 40.7572C37.843 39.4559 37.8478 37.3441 36.5411 36.038L34.7177 34.2145C38.6608 30.4444 40.6384 25.4327 40.6384 20.3996C40.6384 9.90763 32.1329 1.26416 21.4949 1.26416ZM33.8287 33.3247L32.0344 31.5306C31.8287 31.325 31.5227 31.3326 31.586 31.3454C31.1925 31.3468 31.0508 31.6625 30.7641 31.9098L30.015 31.1607C30.0725 31.072 30.4567 30.418 30.5045 30.3261C32.1473 30.8145 33.6616 31.4389 34.9321 32.1717C34.5089 32.6565 34.2091 32.9621 33.8287 33.3247ZM25.8761 37.7263C26.3684 37.2952 26.843 36.7945 27.2932 36.2186C27.4294 36.3756 27.8034 36.7369 28.0829 37.02C27.5517 37.2085 27.0369 37.4337 25.8761 37.7263ZM8.08913 32.1514C9.27132 31.4745 10.632 30.8934 12.1509 30.4187C12.5045 31.0777 12.9939 31.7673 13.4716 32.3183C14.4597 34.6597 15.7157 36.4944 17.1308 37.7302C13.4902 36.8021 10.3979 34.7884 8.08913 32.1514ZM3.64194 21.032H11.2831C11.2925 21.5538 11.3105 22.0825 11.3428 22.6185C11.0726 23.5505 10.9277 24.5247 10.9277 25.5221C10.9277 26.8257 11.1749 28.0893 11.6318 29.2695C10.0098 29.7866 8.55603 30.4223 7.2914 31.1675C5.12019 28.3111 3.77783 24.8019 3.64194 21.032ZM17.0746 3.08904C15.2368 4.70146 13.7152 7.30092 12.6918 10.5447C10.9725 10.0482 9.40243 9.4091 8.05953 8.63259C10.5309 5.80526 13.6662 3.95382 17.0746 3.08904ZM34.9354 8.63398C33.5953 9.40786 32.0266 10.0454 30.3074 10.5412C29.2841 7.30011 27.7633 4.7025 25.9254 3.09067C29.4822 3.99308 32.5743 5.92815 34.9354 8.63398ZM30.2559 23.8327C31.2934 29.374 27.1047 34.4983 21.5363 34.6237C21.5095 34.6244 21.4831 34.6272 21.4563 34.6276C19.1506 34.6869 16.7177 33.8216 14.8617 31.966C13.2222 30.3265 12.1924 28.0166 12.1924 25.5221C12.1924 20.5422 16.2225 16.4128 21.2859 16.4128L21.4152 16.4145C25.8794 16.4667 29.4711 19.6847 30.2559 23.8327ZM27.9806 33.4771C28.3597 33.1584 28.8579 32.6736 29.2576 32.1951C29.4553 32.3918 29.6782 32.6138 29.8702 32.8049L28.5888 34.0866C28.4608 33.955 28.1706 33.6657 27.9806 33.4771ZM20.8607 2.58367V11.7121C18.4242 11.6681 16.0731 11.3824 13.9228 10.8699C15.4049 6.20511 17.9412 2.99919 20.8607 2.58367ZM20.8607 12.9848V15.1661C17.3728 15.3131 14.4495 17.1014 12.6659 19.7673H12.5448C12.5934 17.0021 12.959 14.396 13.5712 12.0862C15.8358 12.6311 18.306 12.9401 20.8607 12.9848ZM20.8607 35.8812V38.2133C19.0855 37.9508 17.3911 36.6344 15.9909 34.4423C17.399 35.2839 19.0993 35.8102 20.8607 35.8812ZM22.1254 35.8634C23.8538 35.7308 25.5813 35.121 26.9458 34.2334C26.9826 34.2699 27.0207 34.3079 27.0605 34.3475C26.1159 35.8451 24.4235 37.898 22.1254 38.2241V35.8634ZM29.9403 19.7673C28.2159 17.1819 25.3576 15.4351 22.1254 15.1844V12.9843C24.6868 12.9377 27.1618 12.6277 29.4289 12.0826C30.0412 14.3929 30.4061 17.0007 30.4547 19.7673H29.9403ZM22.1254 11.7118V2.58097C25.049 2.98514 27.5898 6.19427 29.0748 10.8668C26.9228 11.3791 24.5676 11.6658 22.1254 11.7118ZM7.2611 9.62609C8.7292 10.4966 10.447 11.2165 12.3402 11.7629C11.7033 14.1697 11.3289 16.8778 11.2809 19.7673H3.65236C3.77941 16.0582 5.01726 12.5773 7.2611 9.62609ZM35.7263 31.1885C34.3626 30.3773 32.7834 29.6985 31.0132 29.1628C31.6322 27.5044 31.8111 25.7223 31.5541 23.9891C31.6486 22.9985 31.695 22.0091 31.712 21.032H39.3475C39.2205 24.7562 37.9791 28.2414 35.7263 31.1885ZM31.7192 19.7673C31.6712 16.8764 31.2967 14.1673 30.6593 11.76C32.5526 11.2142 34.2689 10.4958 35.7339 9.62767C37.9806 12.5753 39.2202 16.0559 39.3474 19.7673H31.7192ZM35.6469 39.863C34.8633 40.646 33.4982 40.6454 32.7158 39.863L28.6594 35.8069C28.8004 35.6658 31.6615 32.8024 31.5894 32.8744L35.6469 36.9322C36.4569 37.7421 36.4571 39.0528 35.6469 39.863Z" fill="#00D48F"/>
<path d="M21.3048 17.8843C14.5332 17.8843 11.0856 26.1035 15.903 30.9272C17.3434 32.3679 19.2614 33.1614 21.3036 33.1614C25.7349 33.1614 27.9013 29.4819 27.3507 30.1926C31.2284 25.1878 27.6412 17.8843 21.3048 17.8843ZM21.3036 31.8967C19.557 31.8967 17.8706 31.2115 16.5935 29.8003C17.7919 28.483 19.4734 27.7197 21.3048 27.7197C23.1779 27.7197 24.8539 28.5182 26.0164 29.8005C24.7266 31.2261 23.0295 31.8967 21.3036 31.8967ZM26.7809 28.7767C25.2627 27.2157 23.3151 26.455 21.3048 26.455C19.3134 26.455 17.3545 27.2043 15.8284 28.777C13.3146 24.561 16.3357 19.149 21.3048 19.149C23.0114 19.149 24.612 19.8104 25.8125 21.0102C27.893 23.091 28.2528 26.3051 26.7809 28.7767Z" fill="#00D48F"/>
<path d="M21.3015 20.0347C19.7771 20.0347 18.5371 21.2747 18.5371 22.7987C18.5371 24.3278 19.7771 25.5715 21.3015 25.5715C22.8302 25.5715 24.0739 24.3278 24.0739 22.7987C24.0739 21.2747 22.8302 20.0347 21.3015 20.0347ZM21.3015 24.3068C20.4746 24.3068 19.8018 23.6306 19.8018 22.7987C19.8018 21.9719 20.4746 21.2994 21.3015 21.2994C22.133 21.2994 22.8092 21.9719 22.8092 22.7987C22.8092 23.6306 22.133 24.3068 21.3015 24.3068Z" fill="#00D48F"/>
</svg>
