<svg width="27" height="27" viewBox="0 0 27 27" fill="none" xmlns="http://www.w3.org/2000/svg">
<g clip-path="url(#clip0_687_2348)">
<path d="M14.3085 15.9425C15.8849 15.2891 16.6331 13.4815 15.9797 11.9051C15.3263 10.3287 13.5186 9.58044 11.9422 10.2339C10.3658 10.8873 9.6176 12.6949 10.271 14.2713C10.9244 15.8477 12.7321 16.596 14.3085 15.9425Z" fill="#00D48F"/>
<path d="M18.0577 6.19238H8.12651C6.81564 6.19238 6.19238 6.81558 6.19238 8.12651V18.0578C6.19238 19.3687 6.81564 19.9919 8.12651 19.9919H18.0577C19.3687 19.9919 19.9919 19.3687 19.9919 18.0578V8.12651C19.9919 6.81558 19.3687 6.19238 18.0577 6.19238ZM13.1187 17.3598C12.2744 17.3598 11.4491 17.1094 10.7471 16.6404C10.0452 16.1713 9.49802 15.5046 9.17494 14.7246C8.85185 13.9446 8.76731 13.0863 8.93202 12.2583C9.09673 11.4302 9.50329 10.6696 10.1003 10.0726C10.6973 9.47564 11.4579 9.06909 12.2859 8.90438C13.114 8.73967 13.9723 8.8242 14.7523 9.14729C15.5323 9.47038 16.1989 10.0175 16.668 10.7195C17.137 11.4215 17.3874 12.2468 17.3874 13.0911C17.3874 14.2232 16.9377 15.3089 16.1371 16.1095C15.3366 16.91 14.2508 17.3598 13.1187 17.3598ZM17.8592 9.44847C17.637 9.44848 17.4198 9.38261 17.2351 9.25919C17.0503 9.13576 16.9063 8.96033 16.8213 8.75507C16.7363 8.54981 16.714 8.32395 16.7573 8.10604C16.8007 7.88813 16.9077 7.68797 17.0648 7.53087C17.2219 7.37376 17.422 7.26677 17.6399 7.22342C17.8578 7.18007 18.0837 7.20231 18.289 7.28733C18.4942 7.37235 18.6697 7.51633 18.7931 7.70106C18.9165 7.88579 18.9824 8.10298 18.9824 8.32515C18.9824 8.62306 18.8641 8.90878 18.6534 9.11944C18.4428 9.3301 18.1571 9.44845 17.8592 9.44847Z" fill="#00D48F"/>
<path d="M13.0923 0C5.86164 0 0 5.86164 0 13.0923C0 20.323 5.86164 26.1846 13.0923 26.1846C20.323 26.1846 26.1846 20.323 26.1846 13.0923C26.1846 5.86164 20.323 0 13.0923 0ZM21.2359 18.8524C21.2341 19.484 20.9824 20.0892 20.5358 20.5358C20.0892 20.9824 19.484 21.2341 18.8524 21.2359H7.33218C6.70061 21.2341 6.09544 20.9824 5.64885 20.5358C5.20227 20.0892 4.95056 19.484 4.94871 18.8524V7.33218C4.95056 6.70061 5.20227 6.09544 5.64885 5.64885C6.09544 5.20227 6.70061 4.95056 7.33218 4.94871H18.8524C19.484 4.95056 20.0892 5.20227 20.5358 5.64885C20.9824 6.09544 21.2341 6.70061 21.2359 7.33218V18.8524Z" fill="#00D48F"/>
</g>
<defs>
<clipPath id="clip0_687_2348">
<rect width="26.1846" height="26.1846" fill="white"/>
</clipPath>
</defs>
</svg>
