<svg width="49" height="47" viewBox="0 0 49 47" fill="none" xmlns="http://www.w3.org/2000/svg">
<rect x="0.5" y="0.5" width="48" height="45.9863" rx="4.5" fill="#375079" stroke="#E3E3E3"/>
<g clip-path="url(#clip0_687_2415)">
<path d="M24.8829 13.3526C24.6209 13.3506 24.4072 13.5665 24.4053 13.8342C24.4034 14.102 24.6138 14.3208 24.8758 14.3227C25.1373 14.3246 25.351 14.1093 25.3529 13.8415C25.3548 13.5737 25.1444 13.355 24.8829 13.3526Z" fill="white"/>
<path d="M24.8611 16.2628C23.0317 16.2495 21.5335 17.7604 21.5196 19.6328C21.5058 21.505 22.9825 23.0396 24.8114 23.0537C24.8199 23.0537 24.8283 23.0538 24.8368 23.0538C26.654 23.0538 28.1392 21.5473 28.1529 19.6837C28.1667 17.8116 26.69 16.2769 24.8611 16.2628ZM24.8367 22.0837C24.8307 22.0837 24.8245 22.0836 24.8185 22.0836C23.5121 22.0735 22.4573 20.9773 22.4672 19.64C22.477 18.3088 23.5378 17.2328 24.8358 17.2328C24.8418 17.2328 24.8481 17.2328 24.854 17.2329C26.1604 17.243 27.2152 18.3391 27.2053 19.6764C27.1955 21.0077 26.1347 22.0837 24.8367 22.0837Z" fill="white"/>
<path d="M26.9037 13.7204C26.6573 13.6309 26.3863 13.763 26.2988 14.0156C26.2114 14.2681 26.3405 14.5453 26.5871 14.6349C28.6741 15.3921 30.065 17.427 30.0483 19.6985C30.0464 19.9663 30.2569 20.1851 30.5186 20.1872C30.5198 20.1872 30.521 20.1872 30.5222 20.1872C30.7822 20.1872 30.994 19.9724 30.996 19.7057C31.0157 17.021 29.3711 14.6157 26.9037 13.7204Z" fill="white"/>
<path d="M27.7434 29.6722C30.8948 25.5193 32.8643 23.3537 32.8909 19.7203C32.9243 15.1489 29.3005 11.4121 24.8355 11.4121C20.4226 11.4121 16.8151 15.0709 16.7815 19.5966C16.7544 23.3285 18.7605 25.4911 21.9337 29.6715C18.7769 30.1545 16.7815 31.368 16.7815 32.8522C16.7815 33.8465 17.6792 34.7387 19.3093 35.3644C20.7929 35.934 22.7558 36.2477 24.8362 36.2477C26.9167 36.2477 28.8795 35.934 30.3632 35.3644C31.9932 34.7386 32.8909 33.8464 32.8909 32.8522C32.8909 31.3687 30.8974 30.1555 27.7434 29.6722ZM17.7291 19.6039C17.7587 15.6104 20.9415 12.3823 24.8356 12.3823C28.7757 12.3823 31.9727 15.6801 31.9433 19.7131C31.9181 23.1636 29.8295 25.29 26.4949 29.7402C25.9002 30.5335 25.354 31.2837 24.8369 32.0174C24.3214 31.2832 23.7861 30.5465 23.1824 29.7399C19.7101 25.1034 17.7034 23.1377 17.7291 19.6039ZM24.8362 35.2776C20.7685 35.2776 17.7291 33.9971 17.7291 32.8522C17.7291 32.0032 19.5461 30.9306 22.6011 30.5592C23.2764 31.4663 23.8685 32.2904 24.4492 33.1321C24.5379 33.2607 24.682 33.3372 24.8358 33.3373C24.8359 33.3373 24.8361 33.3373 24.8362 33.3373C24.9898 33.3373 25.1339 33.261 25.2228 33.1327C25.798 32.302 26.4062 31.4576 27.0758 30.5597C30.128 30.9315 31.9433 32.0037 31.9433 32.8523C31.9433 33.9971 28.9039 35.2776 24.8362 35.2776Z" fill="white"/>
</g>
<defs>
<clipPath id="clip0_687_2415">
<rect width="16.1096" height="24.8356" fill="white" transform="translate(16.7812 11.4121)"/>
</clipPath>
</defs>
</svg>
