<svg width="33" height="45" viewBox="0 0 33 45" fill="none" xmlns="http://www.w3.org/2000/svg">
<g clip-path="url(#clip0_687_2516)">
<path d="M6.72754 45H26.2725C29.7825 45 32.6475 42.1425 32.6475 38.625V28.5675C32.6475 18.5925 25.32 10.2975 15.7725 8.7675V5.775C17.295 5.685 18.5025 4.4325 18.5025 2.895C18.5025 1.2975 17.205 0 15.6075 0H4.61254C3.02254 0 1.71754 1.2975 1.71754 2.895C1.71754 4.4325 2.93254 5.685 4.45504 5.775V8.94C2.06254 9.8625 0.352539 12.1725 0.352539 14.8875V38.625C0.352539 42.1425 3.21754 45 6.72754 45ZM14.2725 5.79V8.5875C13.7175 8.5425 13.155 8.5125 12.5925 8.5125H6.72754C6.46504 8.5125 6.21004 8.535 5.95504 8.565V5.79H14.2725ZM4.59754 27.255L7.54504 22.1475C7.81504 21.6825 8.58004 21.6825 8.84254 22.1475L11.79 27.255C12.5475 28.5525 12.5475 30.105 11.79 31.41C11.04 32.7075 9.69754 33.4875 8.19754 33.4875C6.69004 33.4875 5.34754 32.7075 4.59754 31.41C3.84754 30.105 3.84754 28.5525 4.59754 27.255ZM1.85254 38.31H12.555C15.1425 38.31 17.25 36.2025 17.25 33.615V21.645C17.25 19.0575 15.1425 16.95 12.555 16.95H1.85254V14.8875C1.85254 12.2025 4.04254 10.0125 6.72754 10.0125H12.5925C22.8225 10.0125 31.1475 18.3375 31.1475 28.5675V38.625C31.1475 41.31 28.9575 43.5 26.2725 43.5H6.72754C4.04254 43.5 1.85254 41.31 1.85254 38.625V38.31Z" fill="#00D48F"/>
<path d="M8.19766 31.9875C9.15766 31.9875 10.0127 31.4925 10.4927 30.66C10.9727 29.8275 10.9727 28.8375 10.4927 28.005L8.19766 24.0225L5.89516 28.005C5.41516 28.8375 5.41516 29.8275 5.89516 30.66C6.37516 31.4925 7.23766 31.9875 8.19766 31.9875Z" fill="#00D48F"/>
</g>
<defs>
<clipPath id="clip0_687_2516">
<rect width="33" height="45" fill="white"/>
</clipPath>
</defs>
</svg>
