<svg width="42" height="42" viewBox="0 0 42 42" fill="none" xmlns="http://www.w3.org/2000/svg">
<path d="M20.9998 15.8806C22.6134 15.8806 23.9259 14.5681 23.9259 12.9545C23.9259 11.341 22.6134 10.0285 20.9998 10.0285C19.3862 10.0285 18.0737 11.341 18.0737 12.9545C18.0737 14.5681 19.3862 15.8806 20.9998 15.8806ZM20.9998 11.0137C22.0703 11.0137 22.9415 11.8848 22.9415 12.9553C22.9415 14.0259 22.0703 14.897 20.9998 14.897C19.9293 14.897 19.0581 14.0259 19.0581 12.9553C19.0581 11.8848 19.9293 11.0137 20.9998 11.0137ZM26.5271 19.6975C26.445 19.5318 26.2785 19.426 26.0939 19.4235C26.0078 19.4227 25.9241 19.4448 25.8511 19.4842C24.9513 17.7911 23.1408 16.7403 21.0006 16.7403C18.8604 16.7403 17.05 17.7911 16.1493 19.485C16.0755 19.4448 15.9926 19.4227 15.9065 19.4235C15.7219 19.4268 15.5546 19.5326 15.4734 19.6975L14.2585 22.1593L11.5063 22.6523C11.325 22.6851 11.1766 22.8163 11.1224 22.9927C11.0683 23.1691 11.1175 23.361 11.2496 23.4898L13.215 25.4061L12.8336 28.1762C12.8082 28.3592 12.8877 28.5405 13.0387 28.6463C13.1232 28.7053 13.2224 28.7357 13.3217 28.7357C13.4004 28.7357 13.4784 28.7168 13.5505 28.6791L15.9803 27.4019L17.6382 28.205L17.4405 29.3567C17.4093 29.5388 17.4823 29.7225 17.63 29.8333C17.7776 29.944 17.9745 29.9629 18.1402 29.8825L20.9301 28.5306L23.6248 29.9473C23.697 29.985 23.7757 30.0039 23.8537 30.0039C23.9529 30.0039 24.0522 29.9736 24.1367 29.9145C24.2876 29.8087 24.3664 29.6274 24.3418 29.4445L24.1826 28.2919L26.0218 27.4011L28.4515 28.6783C28.5237 28.716 28.6025 28.7349 28.6804 28.7349C28.7796 28.7349 28.8789 28.7045 28.9634 28.6455C29.1143 28.5396 29.1931 28.3584 29.1685 28.1754L28.787 25.4052L30.7525 23.489C30.8846 23.3602 30.9338 23.1682 30.8797 22.9919C30.8255 22.8155 30.677 22.6843 30.4957 22.6514L27.7436 22.1584L26.5271 19.6975ZM20.9998 17.7238C22.5157 17.7238 24.4993 18.4523 25.2211 20.4866L24.3319 22.1478L22.5617 22.4045L21.4411 20.1331C21.3599 19.9674 21.1926 19.8616 21.008 19.8591C20.8243 19.8558 20.6528 19.9567 20.5659 20.1191L19.3493 22.3922L17.6669 22.1478L16.7777 20.4866C17.5004 18.4523 19.4839 17.7238 20.9998 17.7238ZM16.1846 26.4052C16.0443 26.3371 15.8794 26.3396 15.7408 26.4126L13.9386 27.36L14.2232 25.292C14.2445 25.137 14.1912 24.9811 14.0788 24.872L12.6211 23.4504L14.676 23.0829C14.8302 23.055 14.9615 22.9566 15.0304 22.8163L15.9311 20.9903L16.9163 22.8303C16.9901 22.9681 17.1246 23.0624 17.2797 23.0854L17.388 23.101L16.0902 23.2896C15.9073 23.3159 15.7555 23.4422 15.6957 23.6169C15.6358 23.7917 15.6784 23.9844 15.8064 24.1173L17.954 26.3535L17.8104 27.1919L16.1846 26.4052ZM21.1671 27.5421C21.0958 27.5044 21.017 27.4855 20.9383 27.4855C20.8653 27.4855 20.7914 27.5019 20.7234 27.5348L18.5709 28.5774L18.9654 26.2756C18.9917 26.1214 18.9433 25.9639 18.835 25.8515L17.178 24.1264L19.4888 23.7909C19.6438 23.7687 19.7784 23.6736 19.8522 23.5357L20.9809 21.4267L22.0145 23.521C22.0834 23.6612 22.2155 23.7605 22.3689 23.7876L24.7232 24.2092L23.0506 25.8392C22.939 25.9483 22.8849 26.1041 22.9062 26.2592L23.2327 28.6282L21.1671 27.5421ZM27.92 24.8728C27.8084 24.9819 27.7543 25.1378 27.7756 25.2928L28.0602 27.3609L26.258 26.4134C26.1194 26.3404 25.9553 26.3379 25.8142 26.406L24.0391 27.2657L23.916 26.3724L26.0964 24.2478C26.2285 24.119 26.2777 23.927 26.2236 23.7507C26.1694 23.5743 26.0218 23.443 25.8396 23.4102L24.3401 23.142L24.7199 23.087C24.875 23.0649 25.0095 22.9697 25.0833 22.8319L26.0685 20.992L26.9692 22.818C27.0381 22.9582 27.1702 23.0575 27.3236 23.0846L29.3785 23.4521L27.92 24.8728ZM39.602 16.9002L36.1157 16.1513C35.9385 16.1136 35.813 16.0028 35.7531 15.8322C35.562 15.2875 35.338 14.7469 35.0862 14.2244C35.0075 14.0611 35.0181 13.8946 35.1166 13.742L37.0533 10.7454C37.4348 10.1548 37.3544 9.39519 36.8573 8.89809L33.1035 5.14434C32.6064 4.64723 31.846 4.56602 31.2562 4.94828L28.2596 6.88504C28.107 6.98348 27.9405 6.99414 27.7772 6.91539C27.2547 6.66355 26.7141 6.43879 26.1702 6.24848C25.9996 6.18859 25.8889 6.06309 25.8511 5.8859L25.1022 2.39957C24.9545 1.71215 24.3598 1.23145 23.6568 1.23145H18.3477C17.6447 1.23145 17.05 1.71133 16.9023 2.39957L16.1534 5.8859C16.1157 6.06309 16.0049 6.18859 15.8343 6.24848C15.2896 6.43961 14.749 6.66355 14.2273 6.91539C14.0641 6.99414 13.8975 6.98348 13.745 6.88504L10.7484 4.94828C10.1577 4.56684 9.39812 4.64723 8.90102 5.14434L5.14727 8.89809C4.65016 9.39519 4.56895 10.1548 4.95121 10.7454L6.88797 13.742C6.98641 13.8946 6.99707 14.0611 6.91832 14.2244C6.66648 14.7469 6.44172 15.2875 6.25141 15.8314C6.19152 16.002 6.06602 16.1127 5.88883 16.1505L2.4025 16.8994C1.71508 17.0471 1.23438 17.6418 1.23438 18.3448V23.6539C1.23438 24.3569 1.71426 24.9516 2.4025 25.0993L5.88883 25.8482C6.06602 25.8859 6.19152 25.9967 6.25141 26.1673C6.44254 26.7128 6.6673 27.2534 6.91832 27.7743C6.99707 27.9375 6.98641 28.1041 6.88797 28.2566L4.95121 31.2532C4.56977 31.8439 4.65016 32.6035 5.14727 33.1006L8.90102 36.8543C9.39812 37.3514 10.1577 37.4318 10.7484 37.0504L13.745 35.1136C13.8975 35.0152 14.0641 35.0045 14.2273 35.0833C14.7498 35.3351 15.2904 35.5599 15.8343 35.7502C16.0049 35.8101 16.1157 35.9356 16.1534 36.1128L16.9023 39.5991C17.05 40.2865 17.6439 40.7672 18.3477 40.7672H23.6568C24.3598 40.7672 24.9545 40.2873 25.1022 39.5991L25.8511 36.1128C25.8889 35.9356 25.9996 35.8101 26.1702 35.7502C26.7149 35.5591 27.2555 35.3351 27.7772 35.0833C27.9405 35.0045 28.1078 35.0152 28.2596 35.1136L31.2562 37.0504C31.8468 37.4318 32.6064 37.3514 33.1035 36.8543L36.8573 33.1006C37.3544 32.6035 37.4356 31.8439 37.0533 31.2532L35.1166 28.2566C35.0181 28.1041 35.0075 27.9375 35.0862 27.7743C35.338 27.2518 35.5628 26.7112 35.7531 26.1673C35.813 25.9967 35.9385 25.8859 36.1157 25.8482L39.602 25.0993C40.2895 24.9516 40.7693 24.3577 40.7693 23.6539V18.3448C40.7693 17.6426 40.2895 17.0479 39.602 16.9002ZM39.785 23.6547C39.785 23.8934 39.6283 24.087 39.3945 24.1378L35.9082 24.8868C35.393 24.9975 34.9976 25.3462 34.8237 25.8433C34.6449 26.3527 34.4349 26.8596 34.1986 27.3486C33.9698 27.8235 34.0026 28.3502 34.2889 28.7931L36.2256 31.7897C36.3552 31.9899 36.329 32.2384 36.16 32.4074L32.4062 36.1612C32.2373 36.3302 31.9895 36.3564 31.7894 36.2268L28.792 34.2892C28.349 34.0029 27.8223 33.9701 27.3474 34.199C26.8585 34.4344 26.3515 34.6452 25.8421 34.8241C25.345 34.998 24.9964 35.3934 24.8856 35.9085L24.1367 39.3948C24.0866 39.6278 23.8922 39.7853 23.6535 39.7853H18.3445C18.1057 39.7853 17.9121 39.6286 17.8613 39.3948L17.1123 35.9085C17.0016 35.3934 16.653 34.998 16.1559 34.8241C15.6464 34.6452 15.1395 34.4352 14.6506 34.199C14.4414 34.0981 14.2224 34.048 14.0042 34.048C13.7277 34.048 13.4538 34.1293 13.206 34.2892L10.2094 36.226C10.0093 36.3556 9.7607 36.3293 9.59172 36.1603L5.83797 32.4066C5.66898 32.2376 5.64273 31.9899 5.77234 31.7889L7.71074 28.7923C7.99703 28.3493 8.02984 27.8227 7.80098 27.3477C7.56555 26.8596 7.35555 26.3527 7.1759 25.8425C7.00199 25.3453 6.6066 24.9967 6.09145 24.886L2.60512 24.137C2.37215 24.087 2.21465 23.8926 2.21465 23.6539V18.3448C2.21465 18.1061 2.37133 17.9125 2.60512 17.8616L6.09145 17.1127C6.6066 17.002 7.00199 16.6533 7.1759 16.1562C7.35473 15.6468 7.56473 15.1398 7.80098 14.6509C8.02984 14.176 7.99703 13.6493 7.71074 13.2064L5.77398 10.2098C5.64437 10.0096 5.67063 9.76105 5.83961 9.59289L9.59336 5.83914C9.76234 5.67016 10.0101 5.64391 10.2111 5.77351L13.2077 7.71109C13.6506 7.99738 14.1773 8.03019 14.6522 7.80133C15.1411 7.5659 15.6481 7.35508 16.1575 7.17625C16.6546 7.00234 17.0032 6.60695 17.114 6.0918L17.8629 2.60547C17.913 2.3725 18.1074 2.215 18.3461 2.215H23.6552C23.8939 2.215 24.0875 2.37168 24.1383 2.60547L24.8873 6.0918C24.998 6.60695 25.3466 7.00234 25.8438 7.17625C26.3532 7.35508 26.8601 7.56508 27.349 7.80133C27.824 8.03019 28.3506 7.99738 28.7936 7.71109L31.7902 5.77434C31.9904 5.64473 32.2389 5.67098 32.4079 5.83996L36.1616 9.59371C36.3306 9.76269 36.3569 10.0104 36.2273 10.2114L34.2889 13.208C34.0026 13.651 33.9698 14.1776 34.1986 14.6526C34.4341 15.1415 34.6449 15.6484 34.8237 16.1579C34.9976 16.655 35.393 17.0036 35.9082 17.1135L39.3945 17.8625C39.6275 17.9125 39.785 18.1069 39.785 18.3456V23.6547ZM20.9998 8.07613C13.8737 8.07613 8.07578 13.8741 8.07578 21.0002C8.07578 28.1262 13.8737 33.9242 20.9998 33.9242C28.1259 33.9242 33.9238 28.1262 33.9238 21.0002C33.9238 13.8741 28.1259 8.07613 20.9998 8.07613ZM20.9998 32.9398C14.416 32.9398 9.06016 27.584 9.06016 21.0002C9.06016 14.4163 14.416 9.06051 20.9998 9.06051C27.5836 9.06051 32.9395 14.4163 32.9395 21.0002C32.9395 27.584 27.5836 32.9398 20.9998 32.9398Z" fill="#00D48F"/>
</svg>
