<svg width="45" height="45" viewBox="0 0 45 45" fill="none" xmlns="http://www.w3.org/2000/svg">
<g clip-path="url(#clip0_687_2544)">
<path fill-rule="evenodd" clip-rule="evenodd" d="M15.2155 33.6832V38.8124H8.97373C8.5385 38.8215 8.10909 38.7113 7.7321 38.4936C7.35511 38.2759 7.04495 37.9591 6.83526 37.5777L6.39977 36.8226L8.21233 33.6832H15.2155ZM1.10752 31.8743L5.00916 38.6323C5.40266 39.3354 5.97872 39.9193 6.67653 40.3223C7.37433 40.7253 8.16799 40.9324 8.97373 40.9218H16.2699C16.5496 40.9217 16.8178 40.8105 17.0155 40.6128C17.2133 40.415 17.3245 40.1468 17.3246 39.8671V32.6284C17.3245 32.3488 17.2133 32.0806 17.0155 31.8828C16.8178 31.685 16.5496 31.5739 16.2699 31.5738H9.43076L12.7179 25.8811L14.9476 27.1689C15.1243 27.2708 15.3268 27.3194 15.5306 27.3086C15.7344 27.2978 15.9306 27.2281 16.0956 27.108C16.2605 26.9879 16.3871 26.8225 16.4599 26.6319C16.5328 26.4413 16.5488 26.2336 16.506 26.0341L14.0963 14.8122C14.0654 14.6681 14.0045 14.532 13.9178 14.4128C13.831 14.2937 13.7201 14.194 13.5925 14.1203C13.4648 14.0466 13.323 14.0005 13.1764 13.9849C13.0298 13.9694 12.8816 13.9847 12.7413 14.03L1.81803 17.5536C1.62368 17.6162 1.45168 17.7339 1.3229 17.8923C1.19412 18.0508 1.11411 18.2432 1.09257 18.4462C1.07102 18.6493 1.10888 18.8542 1.20154 19.0361C1.29419 19.2181 1.43767 19.3692 1.61456 19.4712L4.62226 21.2071L1.10752 27.2952C0.695194 27.9878 0.477539 28.7788 0.477539 29.5848C0.477539 30.3908 0.695194 31.1818 1.10752 31.8743ZM17.661 13.1001L13.2195 10.5353L17.3714 3.34417C17.5811 2.96267 17.8913 2.64589 18.2683 2.42819C18.6453 2.2105 19.0747 2.10022 19.51 2.1093H24.0064L21.5871 6.3001L17.6614 13.1001H17.661ZM21.7128 15.4116C21.6912 15.2087 21.7289 15.0039 21.8215 14.822C21.914 14.6401 22.0574 14.489 22.2341 14.387L24.7935 12.9095L22.5001 8.93673L18.9605 15.0679C18.8912 15.1878 18.799 15.293 18.6891 15.3773C18.5792 15.4616 18.4538 15.5234 18.32 15.5592C18.1862 15.595 18.0467 15.6042 17.9093 15.5861C17.772 15.568 17.6396 15.523 17.5197 15.4537L11.2514 11.8345C11.1314 11.7653 11.0263 11.6731 10.9419 11.5633C10.8576 11.4534 10.7957 11.3281 10.7599 11.1943C10.724 11.0605 10.7149 10.921 10.733 10.7837C10.7511 10.6464 10.796 10.514 10.8653 10.394L15.5446 2.28948C15.938 1.58603 16.5142 1.00194 17.2122 0.598929C17.9102 0.195917 18.7041 -0.0110408 19.51 -7.27323e-05H25.4902C26.2961 -0.0110567 27.0901 0.195894 27.7881 0.598906C28.4861 1.00192 29.0623 1.58602 29.4557 2.28948L32.8888 8.23528L35.5667 6.6892C35.7434 6.5872 35.946 6.53867 36.1497 6.54947C36.3535 6.56028 36.5498 6.62996 36.7147 6.75008C36.8797 6.87019 37.0062 7.03558 37.0791 7.22618C37.1519 7.41679 37.1679 7.62444 37.1251 7.82395L34.7153 19.0458C34.6843 19.19 34.6235 19.326 34.5367 19.4452C34.4499 19.5643 34.3391 19.664 34.2115 19.7377C34.0838 19.8114 33.9421 19.8575 33.7955 19.8731C33.6489 19.8886 33.5007 19.8733 33.3604 19.8281L22.4376 16.3036C22.2433 16.2411 22.0714 16.1235 21.9427 15.9652C21.8141 15.8068 21.7342 15.6144 21.7128 15.4115V15.4116ZM33.1267 23.124L37.5682 20.5594L42.0661 28.35C42.2918 28.7224 42.4111 29.1495 42.4111 29.5849C42.4111 30.0203 42.2918 30.4474 42.0661 30.8197L39.818 34.7141L38.31 32.102C38.31 32.102 38.31 32.102 38.31 32.1012L33.1267 23.124ZM39.9909 38.6322L43.8927 31.8743C44.305 31.1818 44.5227 30.3908 44.5227 29.5848C44.5227 28.7788 44.305 27.9878 43.8927 27.2952L38.8673 18.5915C38.7274 18.3493 38.497 18.1726 38.2268 18.1002C37.9567 18.0278 37.6688 18.0657 37.4266 18.2056L31.1584 21.825C30.9162 21.9649 30.7394 22.1952 30.667 22.4653C30.5946 22.7355 30.6325 23.0233 30.7723 23.2655L35.5694 31.5738H29.2558V28.5503C29.2558 28.3462 29.1966 28.1466 29.0853 27.9755C28.9741 27.8044 28.8156 27.6693 28.6291 27.5864C28.4425 27.5036 28.236 27.4767 28.0345 27.509C27.833 27.5412 27.6452 27.6312 27.4938 27.7681L18.9806 35.4656C18.8713 35.5644 18.7839 35.6851 18.7241 35.8199C18.6643 35.9546 18.6334 36.1004 18.6334 36.2478C18.6334 36.3952 18.6643 36.541 18.7241 36.6757C18.7839 36.8104 18.8713 36.9311 18.9806 37.03L27.4938 44.7275C27.6452 44.8643 27.833 44.9543 28.0345 44.9866C28.236 45.0188 28.4425 44.9919 28.6291 44.9091C28.8156 44.8263 28.9741 44.6912 29.0853 44.5201C29.1966 44.349 29.2558 44.1493 29.2558 43.9452V40.9218H36.0265C36.8323 40.9325 37.626 40.7255 38.3239 40.3225C39.0217 39.9195 39.5978 39.3355 39.9913 38.6323L39.9909 38.6322Z" fill="#00D48F"/>
</g>
<defs>
<clipPath id="clip0_687_2544">
<rect width="45" height="45" fill="white"/>
</clipPath>
</defs>
</svg>
