<svg width="54" height="45" viewBox="0 0 54 45" fill="none" xmlns="http://www.w3.org/2000/svg">
<g clip-path="url(#clip0_687_2508)">
<path d="M0.844017 27.7627C0.546377 27.7627 0.266775 27.9192 0.104426 28.1834C-0.0669423 28.4573 -0.10302 28.7899 0.00521274 29.0932L5.29058 44.1779C5.42587 44.5595 5.75959 44.8138 6.1384 44.8138H47.8621C48.2409 44.8138 48.5747 44.5595 48.7099 44.1779L53.9953 29.0932C54.1035 28.7899 54.0675 28.4573 53.8961 28.1834C53.7338 27.9192 53.4542 27.7627 53.1565 27.7627H46.7708V3.0812C46.7708 1.48663 45.5712 0.185547 44.101 0.185547H40.7097C39.2396 0.185547 38.049 1.48663 38.049 3.0812V27.7627H29.6971V17.579C31.3115 17.3345 32.5652 15.8475 32.5652 14.0377C32.5652 12.0519 31.077 10.4377 29.2461 10.4377H8.18581C6.35487 10.4377 4.86667 12.0519 4.86667 14.0377C4.86667 15.8475 6.12036 17.3345 7.72582 17.579V27.7627H0.844017ZM39.8529 8.41272H44.9669V27.7627H39.8529V8.41272ZM20.7679 20.416H16.655C14.7158 20.416 13.1465 22.1279 13.1465 24.2214V27.7627H9.52969V17.6279H27.8932V27.7627H24.2854V24.2214C24.2854 22.1279 22.707 20.416 20.7679 20.416ZM51.8487 29.7192L48.8723 38.2106H5.12823L2.15183 29.7192H51.8487Z" fill="#00D48F"/>
</g>
<defs>
<clipPath id="clip0_687_2508">
<rect width="54" height="45" fill="white"/>
</clipPath>
</defs>
</svg>
