<svg width="49" height="42" viewBox="0 0 49 42" fill="none" xmlns="http://www.w3.org/2000/svg">
<g clip-path="url(#clip0_700_4198)">
<path fill-rule="evenodd" clip-rule="evenodd" d="M24.0553 41.9998C24.0265 41.9998 23.9691 41.9752 23.9117 41.9752C13.2908 39.6378 4.9375 29.8451 4.9375 19.7081V12.5235C4.9375 12.3267 5.08103 12.1299 5.31067 12.056C9.76 10.752 14.3528 7.70103 14.6686 3.86272C14.6686 3.69049 14.8121 3.51826 15.0131 3.44444L23.8256 0.0490126C23.9691 -0.0248011 24.1414 -0.0248011 24.2849 0.0490126L33.1261 3.44444C33.3271 3.51826 33.4419 3.69049 33.4706 3.86272C33.7864 7.70103 38.3792 10.752 42.7998 12.056C43.0295 12.1299 43.2017 12.3267 43.2017 12.5235V19.7081C43.2017 22.39 42.5989 25.0965 41.4507 27.7784C41.2785 28.1228 40.7905 28.2212 40.4747 27.9506C35.1068 23.1773 25.634 26.4497 25.634 33.0929C25.634 35.6026 27.098 37.9154 29.5667 39.2933C29.9111 39.4901 29.8824 39.9576 29.5093 40.1299C27.8157 40.9418 26.0359 41.5815 24.1988 41.9752C24.1701 41.9752 24.1127 41.9998 24.0553 41.9998ZM6.08571 12.868V19.7081C6.08571 29.3777 13.9797 38.7028 24.0553 40.991C25.4618 40.6712 26.8397 40.2283 28.1601 39.6378C20.9838 34.7415 25.0312 24.7028 34.2744 24.7028C36.6569 24.7028 38.8672 25.4163 40.6469 26.745C41.5655 24.4075 42.0535 22.0209 42.0535 19.7081V12.868C37.8051 11.5147 32.8965 8.51298 32.3511 4.23179L24.0553 1.0332L15.7881 4.23179C15.214 8.51298 10.3341 11.5147 6.08571 12.868Z" fill="#00D48F"/>
<path fill-rule="evenodd" clip-rule="evenodd" d="M24.055 38.6781C23.9976 38.6781 23.9402 38.6535 23.8828 38.6535C15.3573 36.3161 8.66895 27.9997 8.66895 19.708V14.664C8.66895 14.4672 8.78377 14.295 8.9847 14.2211C13.635 12.2774 16.9074 9.27563 17.9982 5.97862C18.0269 5.8556 18.1417 5.73257 18.3139 5.68336L23.8254 3.54277C23.9689 3.49356 24.1411 3.49356 24.2846 3.54277L29.8248 5.68336C29.9683 5.73257 30.0831 5.8556 30.1405 5.97862C31.2026 9.27563 34.5037 12.2774 39.1253 14.2211C39.3262 14.295 39.4698 14.4672 39.4698 14.664C39.4698 18.6746 39.7855 21.947 38.2641 25.9083C38.0058 26.5234 36.915 26.2282 37.1733 25.6131C38.6086 21.824 38.3216 18.773 38.3216 14.9593C33.6426 12.9417 30.3128 9.86614 29.1071 6.47071L24.055 4.52695L19.0316 6.47071C17.7972 9.86614 14.4674 12.9417 9.81716 14.9593V19.708C9.81716 27.5322 16.0462 35.3811 24.055 37.6693C24.8013 37.4479 25.5477 37.2018 26.2366 36.882C26.9255 36.6113 27.4422 37.4971 26.7533 37.7677C26.294 37.9646 24.4569 38.6781 24.055 38.6781Z" fill="#00D48F"/>
<path fill-rule="evenodd" clip-rule="evenodd" d="M19.9792 30.3866C19.4338 30.3866 18.9171 30.2144 18.5152 29.8699L13.2909 25.3919C11.3676 23.7434 14.2956 21.2583 16.1901 22.9068L19.6347 25.8348C19.807 26.007 20.1227 26.007 20.3237 25.8348L31.9206 15.8945C33.8439 14.246 36.7718 16.7311 34.8486 18.3796L21.4432 29.8945C21.0413 30.2144 20.5246 30.3866 19.9792 30.3866ZM14.7548 23.3743C13.9224 23.3743 13.5205 24.2109 14.0946 24.7029L19.319 29.181C19.6635 29.4762 20.2663 29.4762 20.6107 29.181L34.0448 17.6906C34.906 16.9525 33.5568 15.8699 32.7244 16.5834L21.1274 26.5483C20.4959 27.0896 19.4625 27.0896 18.831 26.5483L15.3864 23.5957C15.2141 23.4481 14.9845 23.3743 14.7548 23.3743Z" fill="#00D48F"/>
<path fill-rule="evenodd" clip-rule="evenodd" d="M34.2744 39.8344C29.9399 39.8344 26.4092 36.808 26.4092 33.0927C26.4092 29.3774 29.9399 26.3511 34.2744 26.3511C38.6089 26.3511 42.1397 29.3774 42.1397 33.0927C42.1397 36.808 38.6089 39.8344 34.2744 39.8344ZM34.2744 27.3353C30.5715 27.3353 27.5574 29.9187 27.5574 33.0927C27.5574 36.2667 30.5715 38.8502 34.2744 38.8502C37.9774 38.8502 40.9915 36.2667 40.9915 33.0927C40.9915 29.9187 37.9774 27.3353 34.2744 27.3353Z" fill="#00D48F"/>
<path fill-rule="evenodd" clip-rule="evenodd" d="M34.2739 28.1967C33.5276 28.1967 33.6998 27.4094 33.6998 26.8435C33.6998 26.1791 34.848 26.1791 34.848 26.8435C34.848 27.4094 34.9915 28.1967 34.2739 28.1967Z" fill="#00D48F"/>
<path fill-rule="evenodd" clip-rule="evenodd" d="M38.7239 29.7714C38.2072 29.7714 37.9489 29.2301 38.3221 28.9349C38.7813 28.5166 39.298 27.8769 39.8434 28.3198C40.4175 28.8118 39.0971 29.7714 38.7239 29.7714Z" fill="#00D48F"/>
<path fill-rule="evenodd" clip-rule="evenodd" d="M41.5651 33.5848C40.9049 33.5848 39.9863 33.7079 39.9863 33.0928C39.9863 32.453 40.9049 32.6007 41.5651 32.6007C42.3115 32.6007 42.3115 33.5848 41.5651 33.5848Z" fill="#00D48F"/>
<path fill-rule="evenodd" clip-rule="evenodd" d="M39.4123 37.9892C39.0678 37.9892 38.6947 37.5709 38.3215 37.251C37.7761 36.7836 38.5798 36.0946 39.1252 36.5621C39.5845 36.9558 40.3596 37.3987 39.8429 37.8416C39.7281 37.94 39.5845 37.9892 39.4123 37.9892Z" fill="#00D48F"/>
<path fill-rule="evenodd" clip-rule="evenodd" d="M34.2739 39.8345C33.5276 39.8345 33.6998 39.0472 33.6998 38.4813C33.6998 37.8415 34.848 37.8415 34.848 38.4813C34.848 39.0472 34.9915 39.8345 34.2739 39.8345Z" fill="#00D48F"/>
<path fill-rule="evenodd" clip-rule="evenodd" d="M29.1075 37.9893C28.6195 37.9893 28.3325 37.4726 28.7056 37.1528C29.1649 36.7591 29.7103 36.0948 30.227 36.5623C30.8011 37.0544 29.4807 37.9893 29.1075 37.9893Z" fill="#00D48F"/>
<path fill-rule="evenodd" clip-rule="evenodd" d="M27.988 33.5848C27.3278 33.5848 26.4092 33.7079 26.4092 33.0928C26.4092 32.453 27.3278 32.6007 27.988 32.6007C28.7343 32.6007 28.7343 33.5848 27.988 33.5848Z" fill="#00D48F"/>
<path fill-rule="evenodd" clip-rule="evenodd" d="M29.8251 29.7715C29.452 29.7715 29.0788 29.3286 28.7056 29.0087C28.1602 28.5658 28.9927 27.8523 29.5094 28.3198C29.9974 28.7135 30.7437 29.181 30.227 29.6238C30.1122 29.7223 29.9686 29.7715 29.8251 29.7715Z" fill="#00D48F"/>
<path fill-rule="evenodd" clip-rule="evenodd" d="M34.2739 33.5848L31.2312 33.511C30.4848 33.4864 30.5135 32.5268 31.2599 32.5268L34.0443 32.6007L37.0583 29.9926C37.575 29.5497 38.4075 30.2386 37.8621 30.7061L34.6758 33.4372C34.561 33.5356 34.4174 33.5848 34.2739 33.5848Z" fill="#00D48F"/>
<path fill-rule="evenodd" clip-rule="evenodd" d="M34.2739 41.483C28.8773 41.483 24.4854 37.7185 24.4854 33.0928C24.4854 28.4671 28.8773 24.7026 34.2739 24.7026C39.6705 24.7026 44.0624 28.4671 44.0624 33.0928C44.0624 37.7185 39.6705 41.483 34.2739 41.483ZM34.2739 25.6868C29.5088 25.6868 25.6336 29.0084 25.6336 33.0928C25.6336 37.1772 29.5088 40.4988 34.2739 40.4988C39.039 40.4988 42.9142 37.1772 42.9142 33.0928C42.9142 29.0084 39.039 25.6868 34.2739 25.6868Z" fill="#00D48F"/>
</g>
<defs>
<clipPath id="clip0_700_4198">
<rect width="49" height="42" fill="white"/>
</clipPath>
</defs>
</svg>
