<svg width="28" height="27" viewBox="0 0 28 27" fill="none" xmlns="http://www.w3.org/2000/svg">
<g clip-path="url(#clip0_687_2352)">
<path d="M13.9467 26.1892C21.167 26.1892 27.0203 20.336 27.0203 13.1156C27.0203 5.89525 21.167 0.0419922 13.9467 0.0419922C6.7263 0.0419922 0.873047 5.89525 0.873047 13.1156C0.873047 20.336 6.7263 26.1892 13.9467 26.1892Z" fill="#00D48F"/>
<path d="M7.44144 20.2338C7.28833 20.2338 7.139 20.173 7.02831 20.0612C6.88247 19.9136 6.8261 19.6995 6.88101 19.499L7.73777 16.3701C7.19827 15.3538 6.91442 14.2132 6.91471 13.0563C6.91617 9.16448 10.0832 5.99805 13.9742 5.99805C15.862 5.99863 17.6357 6.73395 18.968 8.06833C20.3006 9.40242 21.0339 11.1761 21.0333 13.0622C21.0319 16.9546 17.8652 20.1213 13.9739 20.1213C12.8728 20.121 11.783 19.8622 10.8054 19.3709L7.58873 20.2146C7.54021 20.2277 7.49053 20.2338 7.44144 20.2338ZM10.8757 18.1707C10.9722 18.1707 11.0681 18.1949 11.1541 18.2416C12.0143 18.7108 12.9884 18.9589 13.9719 18.9592C17.2249 18.9592 19.8701 16.3137 19.8715 13.0616C19.8721 11.4858 19.2594 10.0041 18.1461 8.88964C17.0328 7.7749 15.5511 7.16073 13.9742 7.16015C10.7238 7.16015 8.07856 9.80537 8.0771 13.0572C8.07681 14.0929 8.34903 15.1127 8.86414 16.0052C8.9417 16.1397 8.96204 16.2995 8.92137 16.4491L8.26798 18.8352L10.7287 18.1896C10.7767 18.1771 10.8263 18.1707 10.8757 18.1707Z" fill="white"/>
<path d="M11.4411 13.1883C11.3583 13.0779 10.7656 12.2911 10.7656 11.4768C10.7656 10.6624 11.193 10.2621 11.3446 10.0965C11.4963 9.9309 11.6755 9.88965 11.7859 9.88965C11.8963 9.88965 12.0067 9.89081 12.1032 9.89546C12.2049 9.90069 12.3411 9.85682 12.4754 10.1796C12.6134 10.5108 12.944 11.3254 12.9855 11.4082C13.0271 11.491 13.0544 11.5875 12.9995 11.6982C12.9443 11.8086 12.9167 11.8774 12.8342 11.9742C12.7514 12.0709 12.6604 12.19 12.5858 12.2641C12.503 12.3466 12.4167 12.4361 12.5131 12.6017C12.6096 12.7673 12.9417 13.3091 13.4335 13.7481C14.0654 14.312 14.5985 14.4866 14.7641 14.5694C14.9294 14.6522 15.0262 14.6386 15.1226 14.5279C15.2191 14.4175 15.5363 14.0447 15.6467 13.8791C15.7571 13.7135 15.8672 13.7411 16.0189 13.7963C16.1705 13.8515 16.984 14.2519 17.1493 14.3347C17.3146 14.4175 17.425 14.459 17.4666 14.5279C17.5081 14.597 17.5081 14.9282 17.3701 15.3146C17.2321 15.701 16.5712 16.054 16.2533 16.1014C15.9683 16.1441 15.6075 16.1618 15.2112 16.0357C14.971 15.9596 14.6627 15.8576 14.2679 15.6871C12.6078 14.9701 11.5242 13.2987 11.4411 13.1883Z" fill="white"/>
</g>
<defs>
<clipPath id="clip0_687_2352">
<rect width="26.1846" height="26.1846" fill="white" transform="translate(0.831055)"/>
</clipPath>
</defs>
</svg>
