<svg width="27" height="27" viewBox="0 0 27 27" fill="none" xmlns="http://www.w3.org/2000/svg">
<g clip-path="url(#clip0_687_2358)">
<path d="M12.0918 15.2035L15.7232 13.0967L12.0918 10.9795V15.2035Z" fill="#00D48F"/>
<path d="M13.9077 0C11.3183 0 8.78707 0.767851 6.63405 2.20645C4.48103 3.64505 2.80295 5.68979 1.81203 8.0821C0.821102 10.4744 0.561831 13.1068 1.067 15.6465C1.57217 18.1862 2.81909 20.519 4.65008 22.35C6.48108 24.181 8.8139 25.4279 11.3536 25.9331C13.8932 26.4382 16.5256 26.179 18.918 25.188C21.3103 24.1971 23.355 22.519 24.7936 20.366C26.2322 18.213 27.0001 15.6817 27.0001 13.0923C27.0001 9.62001 25.6207 6.28993 23.1654 3.83465C20.7101 1.37936 17.38 0 13.9077 0ZM20.7984 15.4093C20.7987 15.7517 20.7314 16.0908 20.6005 16.4073C20.4696 16.7237 20.2777 17.0112 20.0356 17.2534C19.7936 17.4956 19.5062 17.6878 19.1899 17.8189C18.8735 17.95 18.5345 18.0174 18.192 18.0174H9.62346C9.28104 18.0174 8.94197 17.95 8.62563 17.8189C8.3093 17.6878 8.02189 17.4956 7.77984 17.2534C7.53779 17.0112 7.34584 16.7237 7.21496 16.4073C7.08408 16.0908 7.01683 15.7517 7.01706 15.4093V10.7753C7.01683 10.4329 7.08408 10.0938 7.21496 9.77736C7.34584 9.46094 7.53779 9.17341 7.77984 8.9312C8.02189 8.68899 8.3093 8.49685 8.62563 8.36576C8.94197 8.23466 9.28104 8.16719 9.62346 8.16719H18.192C18.5345 8.16719 18.8735 8.23466 19.1899 8.36576C19.5062 8.49685 19.7936 8.68899 20.0356 8.9312C20.2777 9.17341 20.4696 9.46094 20.6005 9.77736C20.7314 10.0938 20.7987 10.4329 20.7984 10.7753V15.4093Z" fill="#00D48F"/>
</g>
<defs>
<clipPath id="clip0_687_2358">
<rect width="26.1846" height="26.1846" fill="white" transform="translate(0.81543)"/>
</clipPath>
</defs>
</svg>
