<svg width="36" height="23" viewBox="0 0 36 23" fill="none" xmlns="http://www.w3.org/2000/svg">
<path d="M34.7256 11.7256L35.0719 12.0862L35.4474 11.7256L35.0719 11.3649L34.7256 11.7256ZM8.11774 11.2256C7.8416 11.2256 7.61774 11.4494 7.61774 11.7256C7.61774 12.0017 7.8416 12.2256 8.11774 12.2256L8.11774 11.7256L8.11774 11.2256ZM34.4647 11.475L34.8111 11.1144L34.8111 11.1144L34.4647 11.475ZM30.0301 16.2354L30.3764 16.596L35.0719 12.0862L34.7256 11.7256L34.3792 11.3649L29.6837 15.8747L30.0301 16.2354ZM34.7256 11.7256L34.7256 11.2256L8.11774 11.2256L8.11774 11.7256L8.11774 12.2256L34.7256 12.2256L34.7256 11.7256ZM34.7256 11.7256L35.0719 11.3649L34.8111 11.1144L34.4647 11.475L34.1184 11.8356L34.3792 12.0862L34.7256 11.7256ZM34.4647 11.475L34.8111 11.1144L30.3764 6.85513L30.0301 7.21574L29.6837 7.57636L34.1184 11.8356L34.4647 11.475Z" fill="#00D48F"/>
<circle cx="11.5" cy="11.5" r="11" transform="rotate(-90 11.5 11.5)" stroke="white"/>
</svg>
