<svg width="51" height="79" viewBox="0 0 51 79" fill="none" xmlns="http://www.w3.org/2000/svg">
<path d="M26 77L25.2788 77.6927L26 78.4436L26.7212 77.6927L26 77ZM27 18C27 17.4477 26.5523 17 26 17C25.4477 17 25 17.4477 25 18L26 18L27 18ZM26.5555 76.4216L27.2768 77.1143L27.2768 77.1143L26.5555 76.4216ZM16 66.5882L15.2788 67.2809L25.2788 77.6927L26 77L26.7212 76.3073L16.7212 65.8955L16 66.5882ZM26 77L27 77L27 18L26 18L25 18L25 77L26 77ZM26 77L26.7212 77.6927L27.2768 77.1143L26.5555 76.4216L25.8343 75.7289L25.2788 76.3073L26 77ZM26.5555 76.4216L27.2768 77.1143L36.7212 67.2809L36 66.5882L35.2788 65.8955L25.8343 75.7289L26.5555 76.4216Z" fill="#00D48F"/>
<circle cx="25.5" cy="25.5" r="24.5" stroke="white" stroke-width="2"/>
</svg>
